<svg width="20" height="20" viewBox="0 0 20 20" fill="none" xmlns="http://www.w3.org/2000/svg">
<path d="M5.35 14.7748C3.49166 13.5582 2.29166 11.7248 2.29166 10.1165C2.29166 7.38317 5.74166 4.03317 10 4.03317C11.7417 4.03317 13.3583 4.5915 14.6583 5.45817" stroke="#727272" stroke-width="1.5" stroke-linecap="round" stroke-linejoin="round"/>
<path d="M16.5414 7.17517C17.2839 8.11683 17.7164 9.1585 17.7164 10.1168C17.7164 12.8502 14.2581 16.2002 9.99975 16.2002C9.24142 16.2002 8.50058 16.0918 7.80808 15.9002" stroke="#727272" stroke-width="1.5" stroke-linecap="round" stroke-linejoin="round"/>
<path d="M8.13808 11.9725C7.64225 11.4817 7.36475 10.8125 7.36725 10.115C7.36392 8.66084 8.54058 7.47917 9.99558 7.47667C10.6956 7.475 11.3673 7.7525 11.8623 8.2475" stroke="#727272" stroke-width="1.5" stroke-linecap="round" stroke-linejoin="round"/>
<path d="M12.5912 10.5826C12.3962 11.6593 11.5537 12.5034 10.4771 12.7009" stroke="#727272" stroke-width="1.5" stroke-linecap="round" stroke-linejoin="round"/>
<path d="M16.5764 3.54158L3.43141 16.6866" stroke="#727272" stroke-width="1.5" stroke-linecap="round" stroke-linejoin="round"/>
</svg>
