<svg width="190" height="49" viewBox="0 0 190 49" fill="none" xmlns="http://www.w3.org/2000/svg">
<g clip-path="url(#clip0_1_8)">
<path d="M45.3757 43.75H36.9444L35.7921 49H26.3581L35.4007 14H47.0602L56.1028 49H46.4708L45.3757 43.75ZM43.8935 37.0081L41.2107 24.4125L38.4134 37.0081H43.8935Z" fill="white"/>
<path d="M83.125 14V49H74.9137L67.0762 30.625V49H58.3063V14H66.5264L74.3639 32.6987V14H83.125Z" fill="white"/>
<path d="M108.727 20.8163H101.931V49H92.3611V20.8163H85.5968V14H108.727V20.8163Z" fill="white"/>
<path d="M128.017 43.75H119.577L118.425 49H108.999L118.042 14H129.715L138.757 49H129.112L128.017 43.75ZM126.539 36.9906L123.852 24.4125L121.059 37.0081L126.539 36.9906Z" fill="white"/>
<path d="M154.982 25.9919V21.4681C154.982 20.65 154.542 20.2694 153.61 20.2694H151.639C150.707 20.2694 150.267 20.65 150.267 21.4681V41.5319C150.267 42.35 150.707 42.7306 151.639 42.7306H153.61C154.542 42.7306 154.982 42.35 154.982 41.5319V35.7H152.242V29.645H164.557V42.2406C164.557 46.3269 162.358 49 156.504 49H148.719C142.856 49 140.662 46.3269 140.662 42.2406V20.7594C140.662 16.6731 142.861 14 148.719 14H156.504C162.366 14 164.557 16.6731 164.557 20.7594V26.0094L154.982 25.9919Z" fill="white"/>
<path d="M190 42.1838V49H168.405V14H189.516V20.8163H177.997V27.9563H187.915V34.7725H177.997V42.1838H190Z" fill="white"/>
<path d="M18.4722 0L11.7255 37.3887L9.67593 25.375H0L6.18819 49H17.3155L27.2685 8.75H190L18.4722 0Z" fill="white"/>
</g>
<defs>
<clipPath id="clip0_1_8">
<rect width="190" height="49" fill="white"/>
</clipPath>
</defs>
</svg>
