<svg xmlns="http://www.w3.org/2000/svg">
  <symbol width="20" height="20" viewBox="0 0 20 20" fill="none" id='icon-tel'>
    <path d="M11.9604 2.29175C15.0446 2.63425 17.4813 5.06758 17.8279 8.15175" stroke="#46A358" stroke-width="1.5" stroke-linecap="round" stroke-linejoin="round"/>
    <path d="M11.9604 5.24426C13.4363 5.53093 14.5896 6.6851 14.8771 8.16093" stroke="#46A358" stroke-width="1.5" stroke-linecap="round" stroke-linejoin="round"/>
    <path fill-rule="evenodd" clip-rule="evenodd" d="M6.41715 13.5825C0.668834 7.83352 1.48623 5.20096 2.0922 4.35263C2.17005 4.21552 4.08881 1.34323 6.14557 3.02839C11.2508 7.23288 4.78767 6.63843 9.07458 10.9261C13.3624 15.2128 12.767 8.74996 16.9717 13.8541C18.6569 15.9117 15.7845 17.8303 15.6483 17.9073C14.7999 18.5141 12.1664 19.3315 6.41715 13.5825Z" stroke="#46A358" stroke-width="1.5" stroke-linecap="round" stroke-linejoin="round"/>
  </symbol>

    <symbol width="20" height="20" viewBox="0 0 20 20" fill="none" id='icon-email'>
      <path d="M14.621 7.51581C14.621 7.51581 11.946 10.7263 9.98943 10.7263C8.03371 10.7263 5.32861 7.51581 5.32861 7.51581" stroke="#46A358" stroke-width="1.5" stroke-linecap="round" stroke-linejoin="round"/>
      <path fill-rule="evenodd" clip-rule="evenodd" d="M2.04346 9.97397C2.04346 4.27556 4.02758 2.37665 9.97997 2.37665C15.9323 2.37665 17.9165 4.27556 17.9165 9.97397C17.9165 15.6716 15.9323 17.5713 9.97997 17.5713C4.02758 17.5713 2.04346 15.6716 2.04346 9.97397Z" stroke="#46A358" stroke-width="1.5" stroke-linecap="round" stroke-linejoin="round"/>
    </symbol>

</svg>